<?xml version="1.0" encoding="UTF-8" standalone="no"?>
<!-- Created with Inkscape (http://www.inkscape.org/) -->

<svg
   xmlns:dc="http://purl.org/dc/elements/1.1/"
   xmlns:cc="http://creativecommons.org/ns#"
   xmlns:rdf="http://www.w3.org/1999/02/22-rdf-syntax-ns#"
   xmlns:svg="http://www.w3.org/2000/svg"
   xmlns="http://www.w3.org/2000/svg"
   xmlns:sodipodi="http://sodipodi.sourceforge.net/DTD/sodipodi-0.dtd"
   xmlns:inkscape="http://www.inkscape.org/namespaces/inkscape"
   version="1.1"
   id="svg3713"
   width="387.02362"
   height="387.02362"
   viewBox="0 0 387.02362 387.02362"
   sodipodi:docname="nnews.svg"
   inkscape:version="0.92.4 (5da689c313, 2019-01-14)">
  <metadata
     id="metadata3719">
    <rdf:RDF>
      <cc:Work
         rdf:about="">
        <dc:format>image/svg+xml</dc:format>
        <dc:type
           rdf:resource="http://purl.org/dc/dcmitype/StillImage" />
        <dc:title></dc:title>
      </cc:Work>
    </rdf:RDF>
  </metadata>
  <defs
     id="defs3717" />
  <sodipodi:namedview
     pagecolor="#ffffff"
     bordercolor="#666666"
     borderopacity="1"
     objecttolerance="10"
     gridtolerance="10"
     guidetolerance="10"
     inkscape:pageopacity="0"
     inkscape:pageshadow="2"
     inkscape:window-width="3200"
     inkscape:window-height="1716"
     id="namedview3715"
     showgrid="false"
     inkscape:zoom="3.9067383"
     inkscape:cx="193.51181"
     inkscape:cy="193.51181"
     inkscape:window-x="-9"
     inkscape:window-y="-9"
     inkscape:window-maximized="1"
     inkscape:current-layer="svg3713" />
  <path
     inkscape:connector-curvature="0"
     id="path3739"
     d="M 1.2798466,195.55955 V 2.0477437 H 194.79166 388.30347 V 195.55955 389.07136 H 194.79166 1.2798466 Z"
     style="fill:#fefefe;stroke-width:0.37795275" />
  <path
     inkscape:connector-curvature="0"
     id="path3737"
     d="m 94.256224,375.0477 c -0.935433,-0.1723 -3.911811,-0.57983 -6.614173,-0.90563 -2.702362,-0.3258 -5.848819,-0.82853 -6.992126,-1.11717 -1.143307,-0.28865 -3.269291,-0.81717 -4.724409,-1.17449 C 67.133503,369.69142 54.449057,363.95557 45.957223,358.29886 36.890212,352.25901 29.940947,346.0564 23.087607,337.88645 17.067784,330.71014 9.660523,318.6959 7.1708556,312.0702 4.5173705,305.00854 2.9592846,300.15829 2.1903238,296.56603 l -0.9104772,-4.25336 v -95.29644 c 0,-94.8727 0.00343,-95.30797 0.772299,-97.889673 2.5120072,-8.434851 8.7482184,-17.181336 16.9740764,-23.806677 5.528004,-4.452416 15.487853,-9.024699 22.209705,-10.195847 1.292383,-0.225172 3.928604,-0.520475 5.858268,-0.656231 l 3.508486,-0.24683 0.188977,-20.976378 0.188976,-20.976378 1.044714,-2.126508 c 0.574594,-1.16958 1.885418,-2.912887 2.912943,-3.874016 l 1.868228,-1.747507 h 33.174485 33.174486 l 2.35198,2.458437 c 1.29359,1.352141 2.56788,3.095448 2.83175,3.874016 0.3546,1.046234 0.53168,6.88861 0.67871,22.391956 l 0.19893,20.976378 26.45669,0.226707 c 24.91786,0.213521 31.91695,0.496729 35.90551,1.452855 0.8315,0.199324 3.29764,0.638551 5.48032,0.976063 4.36413,0.67483 13.12988,2.714169 18.14173,4.22064 19.90381,5.982727 36.45947,14.332066 53.48031,26.971143 6.34935,4.71479 11.08628,8.89844 18.33288,16.19155 10.76537,10.83446 17.09975,18.96956 25.98872,33.37672 1.50318,2.43633 7.93941,15.11525 9.26614,18.25361 7.09804,16.79043 11.54557,34.15271 12.73138,49.70079 0.22988,3.01417 0.58165,6.20559 0.78171,7.09203 0.20006,0.88645 0.36374,6.37149 0.36374,12.18898 v 10.57725 h 26.08051 26.08048 l -0.0962,39.02363 -0.0963,39.02362 -97.94575,0.18897 -97.94575,0.18898 -2.72788,4.13896 c -1.50034,2.27643 -4.02633,5.7307 -5.61331,7.67616 -1.58698,1.94547 -3.59059,4.41994 -4.45248,5.49884 -3.37114,4.21997 -12.8173,12.37147 -19.7267,17.02302 -2.42386,1.6318 -7.63852,4.55163 -11.58813,6.48851 -10.60897,5.20262 -20.6748,8.33075 -30.35929,9.43464 -2.84254,0.32402 -5.89354,0.75591 -6.77999,0.95977 -1.90614,0.43836 -14.273079,0.40381 -16.718986,-0.0467 z"
     style="fill:#95989a;stroke-width:0.37795275" />
  <path
     inkscape:connector-curvature="0"
     id="path3735"
     d="m 92.93339,374.34496 c -15.786595,-2.0457 -26.43538,-5.30848 -39.10261,-11.98102 -2.905474,-1.53047 -12.226598,-7.51727 -13.347595,-8.57293 -0.254747,-0.2399 -1.398614,-1.13449 -2.541921,-1.98798 -3.283085,-2.45085 -9.276302,-8.29443 -12.944632,-12.62143 -1.85042,-2.18268 -3.671434,-4.31156 -4.046699,-4.73085 -0.375265,-0.41929 -2.33437,-3.27937 -4.353567,-6.35573 -6.048163,-9.21471 -11.1250506,-20.55812 -13.4573117,-30.06799 -0.4645264,-1.89412 -0.9878422,-3.44386 -1.1629241,-3.44386 -0.175082,0 -0.3183308,-43.80531 -0.3183308,-97.34514 0,-53.53983 0.144826,-97.255626 0.3218356,-97.14623 0.1770096,0.1094 0.5288562,-0.492065 0.7818813,-1.336589 0.8551208,-2.854137 3.0291639,-7.18125 5.5469918,-11.040465 2.8955209,-4.438129 8.6188889,-10.354802 13.0028349,-13.442007 5.708949,-4.02028 13.594328,-7.356684 19.688455,-8.330442 1.539855,-0.246047 3.414742,-0.606444 4.166419,-0.800878 0.751676,-0.194434 2.391749,-0.353518 3.644602,-0.353518 1.728506,0 2.333249,-0.144193 2.507331,-0.597842 0.126179,-0.328811 0.229413,-9.676762 0.229413,-20.77322 0,-23.013523 -0.06009,-22.53113 3.267939,-26.232704 l 1.715497,-1.908045 h 33.37587 33.375871 l 1.88897,2.066835 c 1.31218,1.435733 2.13161,2.785318 2.6836,4.419844 0.76851,2.275712 0.79462,3.020892 0.79462,22.683654 v 20.33065 l 24.47244,0.128258 c 28.73966,0.150622 33.62296,0.473673 46.77165,3.094114 16.65331,3.31889 32.71009,9.055892 47.05512,16.812548 6.99005,3.779664 17.94805,10.936792 24.36493,15.913757 7.41843,5.75376 18.5308,16.60722 25.38836,24.79682 12.20029,14.57011 22.67135,33.04239 29.26652,51.62986 1.89093,5.32927 4.39163,14.08803 5.47122,19.16303 0.33165,1.55905 0.67603,3.1748 0.76529,3.59055 0.55238,2.57281 1.32211,7.76268 1.68168,11.33858 0.22992,2.28661 0.591,4.75276 0.80239,5.48031 0.21139,0.72756 0.47858,7.49457 0.59376,15.03779 0.19545,12.80071 0.25568,13.73971 0.90358,14.08645 0.44071,0.23586 10.08199,0.33419 26.40545,0.2693 l 25.7113,-0.1022 -7e-5,38.55118 -8e-5,38.55118 -97.41731,-0.10396 c -53.57954,-0.0572 -97.77146,-0.0186 -98.20428,0.0858 -0.47593,0.11474 -1.80149,1.72426 -3.354,4.07247 -6.03558,9.12895 -11.47021,15.34644 -19.7891,22.63972 -8.43302,7.39334 -15.66618,11.89343 -27.47153,17.09132 -5.74297,2.52863 -14.79521,5.15605 -20.97638,6.08842 -2.18267,0.32923 -4.81889,0.78684 -5.85826,1.01691 -2.25896,0.50002 -19.077343,0.75322 -22.29922,0.33572 z m 271.55906,-89.96651 v -12.47244 h -14.15611 -14.1561 l -0.1866,1.22834 c -0.10262,0.67559 -0.45826,3.26929 -0.7903,5.76378 -0.65603,4.92853 -2.42766,10.73454 -4.58138,15.01419 -0.70351,1.39796 -1.27912,2.63103 -1.27912,2.74016 0,0.10912 7.90866,0.19841 17.5748,0.19841 h 17.57481 z"
     style="fill:#fd6c2f;stroke-width:0.37795275" />
  <path
     inkscape:connector-curvature="0"
     id="path3733"
     d="m 92.93339,374.34496 c -15.786595,-2.0457 -26.43538,-5.30848 -39.10261,-11.98102 -2.905474,-1.53047 -12.226598,-7.51727 -13.347595,-8.57293 -0.254747,-0.2399 -1.398614,-1.13449 -2.541921,-1.98798 -3.283085,-2.45085 -9.276302,-8.29443 -12.944632,-12.62143 -1.85042,-2.18268 -3.671434,-4.31156 -4.046699,-4.73085 -0.375265,-0.41929 -2.33437,-3.27937 -4.353567,-6.35573 -6.048163,-9.21471 -11.1250506,-20.55812 -13.4573117,-30.06799 -0.4645264,-1.89412 -0.9878422,-3.44386 -1.1629241,-3.44386 -0.175082,0 -0.3183308,-43.80531 -0.3183308,-97.34514 0,-53.53983 0.144826,-97.255626 0.3218356,-97.14623 0.1770096,0.1094 0.5288562,-0.492065 0.7818813,-1.336589 0.8551208,-2.854137 3.0291639,-7.18125 5.5469918,-11.040465 2.8955209,-4.438129 8.6188889,-10.354802 13.0028349,-13.442007 5.708949,-4.02028 13.594328,-7.356684 19.688455,-8.330442 1.539855,-0.246047 3.414742,-0.606444 4.166419,-0.800878 0.751676,-0.194434 2.391749,-0.353518 3.644602,-0.353518 1.728506,0 2.333249,-0.144193 2.507331,-0.597842 0.126179,-0.328811 0.229413,-9.676762 0.229413,-20.77322 0,-23.013523 -0.06009,-22.53113 3.267939,-26.232704 l 1.715497,-1.908045 h 33.37587 33.375871 l 1.88897,2.066835 c 1.31218,1.435733 2.13161,2.785318 2.6836,4.419844 0.76851,2.275712 0.79462,3.020892 0.79462,22.683654 v 20.33065 l 24.47244,0.128258 c 28.73966,0.150622 33.62296,0.473673 46.77165,3.094114 16.65331,3.31889 32.71009,9.055892 47.05512,16.812548 6.99005,3.779664 17.94805,10.936792 24.36493,15.913757 7.41843,5.75376 18.5308,16.60722 25.38836,24.79682 12.20029,14.57011 22.67135,33.04239 29.26652,51.62986 1.89093,5.32927 4.39163,14.08803 5.47122,19.16303 0.33165,1.55905 0.67603,3.1748 0.76529,3.59055 0.55238,2.57281 1.32211,7.76268 1.68168,11.33858 0.22992,2.28661 0.591,4.75276 0.80239,5.48031 0.21139,0.72756 0.47858,7.49457 0.59376,15.03779 0.19545,12.80071 0.25568,13.73971 0.90358,14.08645 0.44071,0.23586 10.08199,0.33419 26.40545,0.2693 l 25.7113,-0.1022 -7e-5,38.55118 -8e-5,38.55118 -97.41731,-0.10396 c -53.57954,-0.0572 -97.77146,-0.0186 -98.20428,0.0858 -0.47593,0.11474 -1.80149,1.72426 -3.354,4.07247 -6.03558,9.12895 -11.47021,15.34644 -19.7891,22.63972 -8.43302,7.39334 -15.66618,11.89343 -27.47153,17.09132 -5.74297,2.52863 -14.79521,5.15605 -20.97638,6.08842 -2.18267,0.32923 -4.81889,0.78684 -5.85826,1.01691 -2.25896,0.50002 -19.077343,0.75322 -22.29922,0.33572 z m 194.14502,-77.0939 c 9.95121,-1.63003 17.22701,-7.38636 20.93187,-16.5605 1.55019,-3.83865 1.67317,-6.02493 1.67616,-29.79676 0.003,-28.35715 -0.3426,-34.13536 -2.7829,-46.45236 -2.33692,-11.79521 -6.76466,-24.5946 -12.22481,-35.33858 -3.48319,-6.85391 -3.36549,-6.64946 -7.57444,-13.15678 -4.56603,-7.0594 -7.75207,-11.2991 -12.83481,-17.07944 -14.3386,-16.30658 -31.67917,-28.74145 -52.45505,-37.61536 -8.97568,-3.833746 -21.26352,-7.315647 -31.36923,-8.88883 -2.91023,-0.453045 -6.31181,-0.994662 -7.55905,-1.203591 -1.43256,-0.239977 -26.60904,-0.438833 -68.36227,-0.539962 -65.425836,-0.158468 -66.125616,-0.152326 -69.165354,0.606935 -4.08977,1.021539 -8.625267,3.309971 -11.29808,5.700563 -4.014587,3.590685 -7.285486,9.242245 -8.181143,14.135645 -0.280487,1.53243 -0.41048,16.49788 -0.41048,47.25656 v 45.01393 l 5.007874,-4.9305 c 5.616565,-5.52978 8.748412,-8.0679 16.15748,-13.09438 11.024104,-7.479 26.564387,-13.74678 38.740158,-15.62486 2.07874,-0.32064 4.8,-0.74861 6.047244,-0.95105 3.167637,-0.51414 4.27827,-0.55902 12.970071,-0.5242 4.2233,0.0169 8.56031,0.21602 9.6378,0.44243 1.07748,0.22641 3.82993,0.69035 6.11654,1.03099 14.81959,2.20765 31.80147,9.48965 44.22047,18.96217 7.20473,5.49536 8.22028,6.37024 12.28347,10.58199 12.97395,13.4483 20.89005,27.36157 26.19222,46.03522 3.02713,10.66121 4.45899,28.22409 2.91187,35.71653 -0.19315,0.93544 -0.63527,3.6567 -0.98248,6.04725 -0.3472,2.39055 -0.95352,5.58827 -1.34737,7.10604 -0.39385,1.51778 -0.61638,2.92093 -0.49451,3.11812 0.29379,0.47536 81.24732,0.47804 84.14875,0.003 z m 77.41404,-12.87261 v -12.47244 h -14.15611 -14.1561 l -0.1866,1.22834 c -0.10262,0.67559 -0.45826,3.26929 -0.7903,5.76378 -0.65603,4.92853 -2.42766,10.73454 -4.58138,15.01419 -0.70351,1.39796 -1.27912,2.63103 -1.27912,2.74016 0,0.10912 7.90866,0.19841 17.5748,0.19841 h 17.57481 z"
     style="fill:#61737b;stroke-width:0.37795275" />
  <path
     inkscape:connector-curvature="0"
     id="path3731"
     d="m 93.122366,373.96127 c -8.607866,-1.03852 -19.327733,-3.32848 -22.866141,-4.88461 -0.831496,-0.36568 -2.022048,-0.79179 -2.64567,-0.94691 -0.623622,-0.15512 -1.644094,-0.50756 -2.267716,-0.78321 -10.78955,-4.76906 -14.638685,-6.84658 -21.477426,-11.59221 -6.11945,-4.24648 -14.616405,-11.85792 -18.296555,-16.38977 -0.672541,-0.82819 -2.203249,-2.69079 -3.401575,-4.13912 -2.004869,-2.42313 -6.903184,-9.48026 -6.903184,-9.94559 0,-0.11007 -0.405072,-0.73121 -0.900159,-1.3803 -0.967681,-1.26869 -5.6140269,-10.36977 -6.0908752,-11.93055 -0.158773,-0.51969 -0.5955386,-1.6252 -0.9705906,-2.45669 -1.5742548,-3.49015 -4.8817383,-14.66712 -4.8945569,-16.54016 -0.00346,-0.50561 -0.1174461,-0.6702 -0.2834645,-0.40931 -0.1527224,0.23999 -0.2776771,-42.6482 -0.2776771,-95.30709 0,-52.65889 0.071715,-95.67172 0.1593672,-95.58407 0.087652,0.0877 0.528764,-0.98952 0.9802489,-2.393704 1.5370821,-4.780562 4.8082287,-10.722444 8.4355672,-15.322809 1.47907,-1.875829 5.272808,-5.713217 6.562298,-6.637803 0.768528,-0.551048 2.469316,-1.793832 3.779528,-2.761746 6.939655,-5.126642 17.87491,-8.887261 26.900653,-9.251097 1.428453,-0.05759 2.704044,-0.211412 2.834645,-0.341839 0.130602,-0.130428 0.322496,-9.790039 0.426433,-21.465804 l 0.188976,-21.228662 0.914366,-1.857779 c 0.502904,-1.021779 1.586404,-2.509968 2.407782,-3.307087 l 1.493409,-1.449307 h 33.184958 33.184963 l 1.72199,1.968487 c 1.07751,1.23176 2.00792,2.815204 2.486,4.230867 0.72929,2.159546 0.76402,3.188366 0.76402,22.633826 0,19.086218 0.0417,20.381912 0.66141,20.537322 0.36378,0.09123 11.46142,0.214484 24.66142,0.273895 18.96452,0.08536 25.30843,0.23952 30.23622,0.734747 9.6497,0.969763 17.1092,2.309398 26.45669,4.75129 9.91523,2.590205 18.46785,5.684477 27.43145,9.924484 1.26367,0.597747 2.44672,1.086814 2.62901,1.086814 1.25809,0 23.32633,13.237916 24.93167,14.955579 0.20787,0.222418 0.88819,0.721497 1.51181,1.109065 2.04471,1.270734 10.87579,8.556471 15.06595,12.429571 3.86001,3.56793 11.13372,11.24319 13.65846,14.4125 0.62362,0.78284 1.65195,2.03647 2.28518,2.78587 3.95703,4.68292 9.11829,12.08628 13.50063,19.36543 3.1526,5.23653 9.01772,16.75575 10.65478,20.92623 0.57119,1.45512 1.26723,3.15591 1.54676,3.77953 0.53877,1.20199 1.37074,3.53452 3.23543,9.07087 2.92925,8.69707 5.93353,22.22126 6.75869,30.42519 0.24045,2.39055 0.60772,5.02677 0.81617,5.85827 0.20845,0.8315 0.47308,7.68982 0.58807,15.24072 l 0.20907,13.72891 0.92013,0.34983 c 1.46588,0.55733 51.25757,0.45767 51.81895,-0.10371 0.35274,-0.35276 0.45354,8.12523 0.45354,38.15092 0,25.32862 -0.12998,38.68479 -0.37795,38.83805 -0.20788,0.12848 -0.37796,0.0535 -0.37796,-0.16667 0,-0.46419 -194.94015,-0.57481 -195.61905,-0.111 -0.22354,0.15272 -1.71715,2.23358 -3.31911,4.62413 -1.60196,2.39055 -3.70015,5.43087 -4.66266,6.75626 -4.84625,6.67345 -14.88768,16.23674 -23.17083,22.06754 -11.2892,7.94686 -26.80814,14.32074 -39.72999,16.31776 -2.15796,0.3335 -4.77394,0.79419 -5.81331,1.02375 -2.27591,0.50267 -18.654822,0.7478 -22.110244,0.3309 z M 287.07841,297.25106 c 9.95121,-1.63003 17.22701,-7.38636 20.93187,-16.5605 1.55019,-3.83865 1.67317,-6.02493 1.67616,-29.79676 0.003,-28.35715 -0.3426,-34.13536 -2.7829,-46.45236 -2.33692,-11.79521 -6.76466,-24.5946 -12.22481,-35.33858 -3.48319,-6.85391 -3.36549,-6.64946 -7.57444,-13.15678 -4.56603,-7.0594 -7.75207,-11.2991 -12.83481,-17.07944 -14.3386,-16.30658 -31.67917,-28.74145 -52.45505,-37.61536 -8.97568,-3.833746 -21.26352,-7.315647 -31.36923,-8.88883 -2.91023,-0.453045 -6.31181,-0.994662 -7.55905,-1.203591 -1.43256,-0.239977 -26.60904,-0.438833 -68.36227,-0.539962 -65.425836,-0.158468 -66.125616,-0.152326 -69.165354,0.606935 -4.08977,1.021539 -8.625267,3.309971 -11.29808,5.700563 -4.014587,3.590685 -7.285486,9.242245 -8.181143,14.135645 -0.280487,1.53243 -0.41048,16.49788 -0.41048,47.25656 v 45.01393 l 5.007874,-4.9305 c 5.616565,-5.52978 8.748412,-8.0679 16.15748,-13.09438 11.024104,-7.479 26.564387,-13.74678 38.740158,-15.62486 2.07874,-0.32064 4.8,-0.74861 6.047244,-0.95105 3.167637,-0.51414 4.27827,-0.55902 12.970071,-0.5242 4.2233,0.0169 8.56031,0.21602 9.6378,0.44243 1.07748,0.22641 3.82993,0.69035 6.11654,1.03099 14.81959,2.20765 31.80147,9.48965 44.22047,18.96217 7.20473,5.49536 8.22028,6.37024 12.28347,10.58199 12.97395,13.4483 20.89005,27.36157 26.19222,46.03522 3.02713,10.66121 4.45899,28.22409 2.91187,35.71653 -0.19315,0.93544 -0.63527,3.6567 -0.98248,6.04725 -0.3472,2.39055 -0.95352,5.58827 -1.34737,7.10604 -0.39385,1.51778 -0.61638,2.92093 -0.49451,3.11812 0.29379,0.47536 81.24732,0.47804 84.14875,0.003 z m 77.77869,-0.37533 c 0.58814,-1.09894 0.53001,-24.67978 -0.0623,-25.27209 -0.57233,-0.57232 -28.85486,-0.65951 -29.20682,-0.09 -0.12356,0.19993 -0.38113,2.14455 -0.57238,4.32138 -0.52634,5.99074 -2.33822,12.42912 -4.9951,17.74967 -0.8157,1.6335 -1.39225,3.20673 -1.28122,3.49607 0.16851,0.43914 3.13719,0.52607 17.96422,0.52607 17.17429,0 17.77529,-0.0242 18.15359,-0.73106 z m -257.51652,-0.22126 c 13.37231,-2.28821 22.73329,-14.95949 20.95018,-28.35874 -1.31617,-9.89045 -8.12209,-18.0728 -17.67747,-21.25256 -2.52776,-0.84116 -3.60183,-0.97917 -7.66415,-0.98474 -5.324378,-0.007 -6.784863,0.30964 -11.149608,2.41955 -12.917915,6.24451 -18.162686,21.69059 -11.740959,34.57763 2.47011,4.95699 5.646875,8.20459 10.796077,11.0368 2.523341,1.38791 4.163406,1.93745 7.695193,2.57845 3.631847,0.65915 4.856207,0.65687 8.790737,-0.0164 z"
     style="fill:#d35720;stroke-width:0.37795275" />
  <path
     inkscape:connector-curvature="0"
     id="path3729"
     d="m 93.122366,373.96127 c -8.607866,-1.03852 -19.327733,-3.32848 -22.866141,-4.88461 -0.831496,-0.36568 -2.022048,-0.79179 -2.64567,-0.94691 -0.623622,-0.15512 -1.644094,-0.50756 -2.267716,-0.78321 -10.78955,-4.76906 -14.638685,-6.84658 -21.477426,-11.59221 -6.11945,-4.24648 -14.616405,-11.85792 -18.296555,-16.38977 -0.672541,-0.82819 -2.203249,-2.69079 -3.401575,-4.13912 -2.004869,-2.42313 -6.903184,-9.48026 -6.903184,-9.94559 0,-0.11007 -0.405072,-0.73121 -0.900159,-1.3803 -0.967681,-1.26869 -5.6140269,-10.36977 -6.0908752,-11.93055 -0.158773,-0.51969 -0.5955386,-1.6252 -0.9705906,-2.45669 -1.5742548,-3.49015 -4.8817383,-14.66712 -4.8945569,-16.54016 -0.00346,-0.50561 -0.1174461,-0.6702 -0.2834645,-0.40931 -0.1527224,0.23999 -0.2776771,-42.6482 -0.2776771,-95.30709 0,-52.65889 0.071715,-95.67172 0.1593672,-95.58407 0.087652,0.0877 0.528764,-0.98952 0.9802489,-2.393704 1.5370821,-4.780562 4.8082287,-10.722444 8.4355672,-15.322809 1.47907,-1.875829 5.272808,-5.713217 6.562298,-6.637803 0.768528,-0.551048 2.469316,-1.793832 3.779528,-2.761746 6.939655,-5.126642 17.87491,-8.887261 26.900653,-9.251097 1.428453,-0.05759 2.704044,-0.211412 2.834645,-0.341839 0.130602,-0.130428 0.322496,-9.790039 0.426433,-21.465804 l 0.188976,-21.228662 0.914366,-1.857779 c 0.502904,-1.021779 1.586404,-2.509968 2.407782,-3.307087 l 1.493409,-1.449307 h 33.184958 33.184963 l 1.72199,1.968487 c 1.07751,1.23176 2.00792,2.815204 2.486,4.230867 0.72929,2.159546 0.76402,3.188366 0.76402,22.633826 0,19.086218 0.0417,20.381912 0.66141,20.537322 0.36378,0.09123 11.46142,0.214484 24.66142,0.273895 18.96452,0.08536 25.30843,0.23952 30.23622,0.734747 9.6497,0.969763 17.1092,2.309398 26.45669,4.75129 9.91523,2.590205 18.46785,5.684477 27.43145,9.924484 1.26367,0.597747 2.44672,1.086814 2.62901,1.086814 1.25809,0 23.32633,13.237916 24.93167,14.955579 0.20787,0.222418 0.88819,0.721497 1.51181,1.109065 2.04471,1.270734 10.87579,8.556471 15.06595,12.429571 3.86001,3.56793 11.13372,11.24319 13.65846,14.4125 0.62362,0.78284 1.65195,2.03647 2.28518,2.78587 3.95703,4.68292 9.11829,12.08628 13.50063,19.36543 3.1526,5.23653 9.01772,16.75575 10.65478,20.92623 0.57119,1.45512 1.26723,3.15591 1.54676,3.77953 0.53877,1.20199 1.37074,3.53452 3.23543,9.07087 2.92925,8.69707 5.93353,22.22126 6.75869,30.42519 0.24045,2.39055 0.60772,5.02677 0.81617,5.85827 0.20845,0.8315 0.47308,7.68982 0.58807,15.24072 l 0.20907,13.72891 0.92013,0.34983 c 1.46588,0.55733 51.25757,0.45767 51.81895,-0.10371 0.35274,-0.35276 0.45354,8.12523 0.45354,38.15092 0,25.32862 -0.12998,38.68479 -0.37795,38.83805 -0.20788,0.12848 -0.37796,0.0535 -0.37796,-0.16667 0,-0.46419 -194.94015,-0.57481 -195.61905,-0.111 -0.22354,0.15272 -1.71715,2.23358 -3.31911,4.62413 -1.60196,2.39055 -3.70015,5.43087 -4.66266,6.75626 -4.84625,6.67345 -14.88768,16.23674 -23.17083,22.06754 -11.2892,7.94686 -26.80814,14.32074 -39.72999,16.31776 -2.15796,0.3335 -4.77394,0.79419 -5.81331,1.02375 -2.27591,0.50267 -18.654822,0.7478 -22.110244,0.3309 z m 24.485614,-26.59935 c 18.04367,-3.73655 33.15228,-12.73856 44.8556,-26.72587 16.55016,-19.78006 21.89029,-47.51699 13.96616,-72.54107 -3.84661,-12.14746 -10.39885,-22.71771 -19.68786,-31.761 -7.05712,-6.87045 -13.76091,-11.45332 -22.40503,-15.31661 -10.13515,-4.52969 -19.95028,-6.59492 -31.31258,-6.58858 -9.387193,0.005 -16.338073,1.12139 -24.995916,4.01378 -26.665689,8.90838 -46.139611,31.71354 -51.274964,60.04611 -0.937081,5.17003 -1.310156,12.52961 -0.922731,18.20256 2.519147,36.88716 30.348315,66.47683 67.291707,71.54865 1.351181,0.1855 6.368504,0.28018 11.149614,0.2104 7.52395,-0.10981 9.31728,-0.25616 13.336,-1.08837 z M 97.340043,323.25526 c -11.988862,-1.25439 -23.500622,-6.98647 -32.103753,-15.9855 -6.677019,-6.98428 -10.892073,-14.86865 -13.151134,-24.59955 -0.938676,-4.04334 -1.050682,-5.23592 -1.046472,-11.14216 0.0052,-7.34347 0.413507,-9.94319 2.591478,-16.50146 8.956029,-26.96824 38.083159,-41.6842 65.192998,-32.93759 17.35002,5.59775 30.66875,20.16973 34.82366,38.10047 1.10896,4.78578 1.36541,14.10062 0.53589,19.46457 -3.59915,23.27308 -22.57449,41.13936 -46.35288,43.64368 -4.07391,0.42907 -6.05998,0.42102 -10.489787,-0.0425 z m 10.000537,-26.60079 c 13.37231,-2.28821 22.73329,-14.95949 20.95018,-28.35874 -1.31617,-9.89045 -8.12209,-18.0728 -17.67747,-21.25256 -2.52776,-0.84116 -3.60183,-0.97917 -7.66415,-0.98474 -5.324378,-0.007 -6.784863,0.30964 -11.149608,2.41955 -12.917915,6.24451 -18.162686,21.69059 -11.740959,34.57763 2.47011,4.95699 5.646875,8.20459 10.796077,11.0368 2.523341,1.38791 4.163406,1.93745 7.695193,2.57845 3.631847,0.65915 4.856207,0.65687 8.790737,-0.0164 z m 179.00471,0.96709 c 0.88645,-0.19976 2.61384,-0.55752 3.83864,-0.79503 1.22481,-0.23751 3.77599,-1.22068 5.6693,-2.18482 6.07274,-3.09247 10.66475,-8.52203 12.99535,-15.36563 l 1.02969,-3.02362 v -26.64567 c 0,-26.06464 -0.24174,-32.94981 -1.32703,-37.79527 -0.20951,-0.93543 -0.80163,-3.99685 -1.31582,-6.80315 -4.46119,-24.34832 -16.82925,-48.8771 -34.30329,-68.0315 -7.61666,-8.3491 -14.31985,-14.20774 -25.03811,-21.88348 -5.79426,-4.14949 -19.52793,-11.66773 -24.99503,-13.68305 -1.21966,-0.44961 -2.38765,-0.95022 -2.59552,-1.11248 -0.20787,-0.16226 -3.50084,-1.337179 -7.31771,-2.61094 -11.75556,-3.923056 -22.01204,-6.010273 -35.39095,-7.202143 -1.87087,-0.166666 -31.65855,-0.319008 -66.19484,-0.338536 l -62.793276,-0.03551 -3.65771,0.950351 c -3.870327,1.005596 -5.762373,1.830916 -8.504763,3.70981 -5.302084,3.632617 -9.006561,8.962048 -10.6232,15.283048 -0.701595,2.74321 -0.730151,4.62383 -0.730151,48.08575 0,24.87698 0.08556,45.31644 0.190138,45.42101 0.104575,0.10458 2.528197,-2.12526 5.385826,-4.9552 13.251866,-13.12344 28.807411,-22.06817 46.959469,-27.00257 3.257458,-0.8855 5.957329,-1.41572 13.228347,-2.59788 3.411004,-0.55458 20.67086,-0.5329 24.18898,0.0304 10.64598,1.70452 17.63541,3.48351 24.94488,6.34914 25.54256,10.0138 45.97024,29.40305 56.88412,53.99246 4.27016,9.62084 6.72676,18.43861 8.58424,30.81243 0.48847,3.25399 0.49264,18.43027 0.006,21.54331 -0.75138,4.80577 -2.39092,13.27055 -2.7567,14.23263 -0.80851,2.12656 -2.99928,2.01934 41.26029,2.01934 24.70307,0 41.40229,-0.14311 42.37892,-0.36318 z m 78.51181,-0.74583 c 0.58814,-1.09894 0.53001,-24.67978 -0.0623,-25.27209 -0.57233,-0.57232 -28.85486,-0.65951 -29.20682,-0.09 -0.12356,0.19993 -0.38113,2.14455 -0.57238,4.32138 -0.52634,5.99074 -2.33822,12.42912 -4.9951,17.74967 -0.8157,1.6335 -1.39225,3.20673 -1.28122,3.49607 0.16851,0.43914 3.13719,0.52607 17.96422,0.52607 17.17429,0 17.77529,-0.0242 18.15359,-0.73106 z"
     style="fill:#99634a;stroke-width:0.37795275" />
  <path
     inkscape:connector-curvature="0"
     id="path3727"
     d="m 93.122366,373.96127 c -8.607866,-1.03852 -19.327733,-3.32848 -22.866141,-4.88461 -0.831496,-0.36568 -2.022048,-0.79179 -2.64567,-0.94691 -0.623622,-0.15512 -1.644094,-0.50756 -2.267716,-0.78321 -10.78955,-4.76906 -14.638685,-6.84658 -21.477426,-11.59221 -6.11945,-4.24648 -14.616405,-11.85792 -18.296555,-16.38977 -0.672541,-0.82819 -2.203249,-2.69079 -3.401575,-4.13912 -2.004869,-2.42313 -6.903184,-9.48026 -6.903184,-9.94559 0,-0.11007 -0.405072,-0.73121 -0.900159,-1.3803 -0.967681,-1.26869 -5.6140269,-10.36977 -6.0908752,-11.93055 -0.158773,-0.51969 -0.5955386,-1.6252 -0.9705906,-2.45669 -1.5742548,-3.49015 -4.8817383,-14.66712 -4.8945569,-16.54016 -0.00346,-0.50561 -0.1174461,-0.6702 -0.2834645,-0.40931 -0.1527224,0.23999 -0.2776771,-42.6482 -0.2776771,-95.30709 0,-52.65889 0.071715,-95.67172 0.1593672,-95.58407 0.087652,0.0877 0.528764,-0.98952 0.9802489,-2.393704 1.5370821,-4.780562 4.8082287,-10.722444 8.4355672,-15.322809 1.47907,-1.875829 5.272808,-5.713217 6.562298,-6.637803 0.768528,-0.551048 2.469316,-1.793832 3.779528,-2.761746 6.939655,-5.126642 17.87491,-8.887261 26.900653,-9.251097 1.428453,-0.05759 2.704044,-0.211412 2.834645,-0.341839 0.130602,-0.130428 0.322496,-9.790039 0.426433,-21.465804 l 0.188976,-21.228662 0.914366,-1.857779 c 0.502904,-1.021779 1.586404,-2.509968 2.407782,-3.307087 l 1.493409,-1.449307 h 33.184958 33.184963 l 1.72199,1.968487 c 1.07751,1.23176 2.00792,2.815204 2.486,4.230867 0.72929,2.159546 0.76402,3.188366 0.76402,22.633826 0,19.086218 0.0417,20.381912 0.66141,20.537322 0.36378,0.09123 11.46142,0.214484 24.66142,0.273895 18.96452,0.08536 25.30843,0.23952 30.23622,0.734747 9.6497,0.969763 17.1092,2.309398 26.45669,4.75129 9.91523,2.590205 18.46785,5.684477 27.43145,9.924484 1.26367,0.597747 2.44672,1.086814 2.62901,1.086814 1.25809,0 23.32633,13.237916 24.93167,14.955579 0.20787,0.222418 0.88819,0.721497 1.51181,1.109065 2.04471,1.270734 10.87579,8.556471 15.06595,12.429571 3.86001,3.56793 11.13372,11.24319 13.65846,14.4125 0.62362,0.78284 1.65195,2.03647 2.28518,2.78587 3.95703,4.68292 9.11829,12.08628 13.50063,19.36543 3.1526,5.23653 9.01772,16.75575 10.65478,20.92623 0.57119,1.45512 1.26723,3.15591 1.54676,3.77953 0.53877,1.20199 1.37074,3.53452 3.23543,9.07087 2.92925,8.69707 5.93353,22.22126 6.75869,30.42519 0.24045,2.39055 0.60772,5.02677 0.81617,5.85827 0.20845,0.8315 0.47308,7.68982 0.58807,15.24072 l 0.20907,13.72891 0.92013,0.34983 c 1.46588,0.55733 51.25757,0.45767 51.81895,-0.10371 0.35274,-0.35276 0.45354,8.12523 0.45354,38.15092 0,25.32862 -0.12998,38.68479 -0.37795,38.83805 -0.20788,0.12848 -0.37796,0.0535 -0.37796,-0.16667 0,-0.46419 -194.94015,-0.57481 -195.61905,-0.111 -0.22354,0.15272 -1.71715,2.23358 -3.31911,4.62413 -1.60196,2.39055 -3.70015,5.43087 -4.66266,6.75626 -4.84625,6.67345 -14.88768,16.23674 -23.17083,22.06754 -11.2892,7.94686 -26.80814,14.32074 -39.72999,16.31776 -2.15796,0.3335 -4.77394,0.79419 -5.81331,1.02375 -2.27591,0.50267 -18.654822,0.7478 -22.110244,0.3309 z m 17.196854,-24.97393 c 11.2985,-0.9745 23.71859,-5.12798 33.25984,-11.12264 13.18071,-8.28129 22.53962,-18.65843 29.31992,-32.50987 5.58916,-11.41806 8.27278,-23.98875 7.78622,-36.47245 -0.64883,-16.64693 -6.39655,-32.36687 -16.65211,-45.5433 -2.78848,-3.58267 -9.91455,-10.57576 -13.83985,-13.58161 -9.973,-7.63691 -21.23481,-12.59966 -34.01575,-14.98972 -4.09784,-0.76631 -5.87731,-0.88214 -13.41733,-0.87337 -7.8429,0.009 -9.191832,0.10803 -13.795274,1.01156 -16.882091,3.31349 -31.293029,11.11341 -42.47043,22.98711 -11.050969,11.73939 -18.093956,26.06436 -20.702459,42.10744 -0.658078,4.04738 -0.654273,19.04291 0.0059,23.05512 3.658068,22.23366 15.511357,40.85132 33.849307,53.16624 14.871175,9.9868 32.218836,14.35709 50.672066,12.76549 z M 96.901894,322.67727 C 90.201982,321.6178 83.37388,319.46761 78.760162,316.96438 65.35694,309.69232 55.928924,297.2471 52.617521,282.45543 c -1.180093,-5.27135 -1.271981,-16.13984 -0.178526,-21.1168 2.293557,-10.43936 6.809945,-18.73956 14.202614,-26.10151 7.546783,-7.51543 15.868668,-11.97315 26.572294,-14.23381 4.341392,-0.91692 14.698287,-0.91844 19.275147,-0.003 3.8704,0.77428 10.04843,2.86112 13.30133,4.49297 18.91675,9.48979 30.29698,29.99983 28.21024,50.84199 -1.24981,12.48302 -6.30018,23.09699 -15.16092,31.86251 -9.59592,9.49279 -22.76209,14.82617 -36.24012,14.68021 -2.614045,-0.0281 -5.178001,-0.11852 -5.697686,-0.2007 z m 10.438686,-26.0228 c 13.37231,-2.28821 22.73329,-14.95949 20.95018,-28.35874 -1.31617,-9.89045 -8.12209,-18.0728 -17.67747,-21.25256 -2.52776,-0.84116 -3.60183,-0.97917 -7.66415,-0.98474 -5.324378,-0.007 -6.784863,0.30964 -11.149608,2.41955 -12.917915,6.24451 -18.162686,21.69059 -11.740959,34.57763 2.47011,4.95699 5.646875,8.20459 10.796077,11.0368 2.523341,1.38791 4.163406,1.93745 7.695193,2.57845 3.631847,0.65915 4.856207,0.65687 8.790737,-0.0164 z m 184.39596,0.48955 c 7.79462,-2.65447 13.95804,-8.46949 17.0241,-16.06178 1.80153,-4.46102 1.86622,-5.55028 1.83572,-30.90852 -0.0284,-23.61301 -0.23445,-28.92461 -1.48081,-38.17323 -0.54455,-4.04083 -0.79793,-5.34006 -2.43247,-12.47244 -2.98919,-13.04346 -8.80771,-27.49847 -15.84088,-39.35374 -3.13552,-5.2853 -9.09535,-13.75905 -12.85968,-18.28405 -6.01606,-7.23175 -17.15873,-18.01696 -23.3038,-22.55621 -5.79881,-4.28349 -7.31608,-5.3779 -8.29651,-5.98432 -0.62362,-0.38572 -2.2749,-1.4437 -3.66951,-2.35107 -3.28299,-2.13597 -15.21424,-8.25141 -20.42474,-10.4688 -5.27163,-2.243428 -13.11245,-4.853536 -19.49134,-6.488419 -4.43533,-1.136761 -6.96057,-1.635958 -16.13094,-3.188803 -5.72806,-0.969948 -15.86659,-1.119855 -75.73726,-1.119855 -43.497725,0 -63.359615,0.125393 -64.748081,0.408775 -5.467729,1.115943 -9.78676,3.424426 -13.731299,7.339256 -2.393367,2.375339 -3.432267,3.774556 -4.845482,6.526016 -3.036124,5.91119 -2.8767,2.9043 -2.884077,54.39656 -0.0039,27.16698 0.133594,45.89108 0.337893,46.01735 0.189452,0.11709 2.698113,-2.13616 5.574804,-5.00721 9.641901,-9.623 20.693931,-17.08856 33.479306,-22.615 5.92526,-2.56117 15.991755,-5.51006 22.207733,-6.50556 8.465654,-1.35578 22.103983,-1.47123 31.082013,-0.2631 17.42959,2.34542 36.01286,10.49747 50.01201,21.93913 6.78706,5.54714 15.30485,14.63422 19.30797,20.59842 0.62785,0.93544 1.82895,2.72126 2.66909,3.96851 1.90809,2.83265 5.62978,9.87239 7.602,14.37949 3.76268,8.59885 6.75488,19.76293 7.59279,28.32917 1.20088,12.27688 1.28326,13.79718 0.85863,15.84514 -0.2188,1.05525 -0.58649,4.04462 -0.81708,6.64305 -0.23058,2.59842 -0.66546,5.82992 -0.96639,7.1811 -1.67297,7.51164 -1.78862,8.30463 -1.29747,8.89642 0.42495,0.51203 5.29844,0.56481 43.41441,0.4701 l 42.93573,-0.10668 z m 73.12056,-0.26829 c 0.58814,-1.09894 0.53001,-24.67978 -0.0623,-25.27209 -0.57233,-0.57232 -28.85486,-0.65951 -29.20682,-0.09 -0.12356,0.19993 -0.38113,2.14455 -0.57238,4.32138 -0.52634,5.99074 -2.33822,12.42912 -4.9951,17.74967 -0.8157,1.6335 -1.39225,3.20673 -1.28122,3.49607 0.16851,0.43914 3.13719,0.52607 17.96422,0.52607 17.17429,0 17.77529,-0.0242 18.15359,-0.73106 z"
     style="fill:#566065;stroke-width:0.37795275" />
  <path
     inkscape:connector-curvature="0"
     id="path3725"
     d="m 97.491867,322.63771 c -0.05805,-0.058 -1.702723,-0.36368 -3.654841,-0.67918 -14.059567,-2.27233 -27.2505,-11.3023 -34.854909,-23.86023 -3.072352,-5.07369 -5.536823,-11.5563 -6.547514,-17.22277 -0.831904,-4.66407 -0.841069,-13.69638 -0.01852,-18.25144 2.856317,-15.81754 13.428854,-29.89099 27.678398,-36.84364 6.075912,-2.96456 10.563009,-4.20664 18.23605,-5.04797 3.855989,-0.42279 5.340319,-0.42051 9.236379,0.0142 7.64715,0.8532 11.85703,2.06488 18.25876,5.25517 5.14384,2.56343 9.5803,5.85561 13.7964,10.23797 3.96471,4.12104 6.28805,7.3433 8.6747,12.03099 3.80237,7.46835 5.31762,13.7372 5.48449,22.69033 0.12837,6.88729 -0.66283,11.94993 -2.83524,18.14173 -3.15835,9.00193 -9.81302,17.87288 -17.94964,23.92761 -5.60755,4.17277 -13.92119,7.69429 -21.16535,8.9653 -3.15395,0.55336 -13.944657,1.03645 -14.339164,0.64194 z m 11.615363,-25.76684 c 4.22739,-1.08119 8.18687,-3.1596 11.09407,-5.82353 5.03653,-4.61507 7.63292,-9.42959 8.61665,-15.97802 0.49455,-3.29201 0.49433,-4.13079 -0.002,-7.21443 -1.86914,-11.61565 -10.02932,-20.03784 -21.52047,-22.21146 -3.94194,-0.74564 -5.71717,-0.71225 -9.770036,0.1838 -12.192582,2.69566 -20.738937,13.20465 -20.748809,25.5137 -0.0098,12.20387 7.801965,22.33385 19.698504,25.54428 3.470359,0.93651 8.938431,0.93031 12.631971,-0.0143 z"
     style="fill:#485257;stroke-width:0.37795275" />
</svg>
